Patient4_TMGait_0pt8_01_right_48_EMG.mot
version=1
nRows=20
nColumns=33
inDegrees=no
endheader
time	1LAddLong	2LGlutMax	3LGlutMed	4LIliopsoas	5LSemiMemb	6LBicFemLong	7LRecFem	8LVastMed	9LVastLat	10LGasMed	11LTibAnt	12lTibPost	13LPeroneusLong	14LSol	15LExtDigLong	16LFlexDigLong	17RAddLong	18RGlutMax	19RGlutMed	20RIliopsoas	21RSemiMemb	22RBicFemLong	23RRecFem	24RVastMed	25RVastLat	26RGasMed	27RTibAnt	28RTibPost	29RPeroneusLong	30RSol	31RExtDigLong	32RFlexDigLong
54.03	0.032654	-0.19211	0.093994	0.012207	0.12512	-0.103	0.043335	-0.012054	0.30289	-0.41382	-0.002136	-0.34439	0.13077	-0.50003	0.008545	0.20142	-0.021973	0.26916	0.29358	0.051575	0.082245	0.003204	-0.025177	0.006409	-0.070801	-0.021667	-0.26672	-0.000763	-0.19257	-0.051117	-0.001678	-0.036926
54.031	0.036163	-0.16129	-0.032959	0.009308	0.084839	0.062408	0.15991	-0.021667	0.095825	-0.34454	0.005341	-0.53757	0.039825	-0.19745	-0.009155	-0.22034	-0.026245	0.22278	0.087433	0.069885	0.083008	0.028534	0.000763	0.03006	-0.062561	-0.023041	-0.040894	-0.001068	0.30914	0.005951	0.001068	-0.01709
54.032	0.013885	-0.12009	-0.11688	-0.002747	0.087128	0.05722	0.21866	-0.007782	-0.36545	-0.0914	0.002441	-0.0177	0.000763	-0.042877	0.011749	0.059967	-0.035248	0.24368	-0.088959	0.056305	0.083313	0.049591	0.009308	0.004272	-0.063477	-0.026093	-0.089111	-0.001984	0.2504	0.025635	0.000458	-0.020905
54.033	0.007019	-0.16495	-0.16113	-0.002441	0.069275	0.060272	0.13077	0.001526	-0.31891	-0.069122	0.000763	-0.077667	0.004425	0.060272	0.040436	-0.16892	-0.027313	0.21759	0.16403	-0.018768	0.073853	0.039368	0.090027	0.022583	-0.057068	-0.034485	-0.14984	-0.000916	0.242	-0.044098	-0.002747	-0.021057
54.034	0.012817	-0.21194	-0.046082	0.00824	0.027008	0.076141	0.059509	0.005951	-0.14221	0.17716	0.003204	-0.22095	0.006104	-0.002747	0.027313	0.1651	0.057526	0.2211	0.38422	-0.0383	0.062866	0.032043	0.093384	0.054169	-0.045624	-0.032196	-0.033264	-0.000458	0.17883	-0.086212	0.000763	-0.083618
54.035	0.013428	-0.20111	0.016174	-0.003357	0.013123	-0.058746	0.008698	0.006561	0.068512	0.37567	0.002136	-0.15793	0.045929	0.11887	0.028229	-0.46356	0.10025	0.19592	0.2269	0.042419	0.060425	0.042267	0.09613	0.065155	-0.051422	-0.041504	0.011902	0.000763	-0.1564	0.004578	-0.000153	-0.057831
54.036	0.015869	-0.19745	-0.01358	0.000458	-0.013428	0.022736	0.060883	-0.00824	0.1329	0.18021	-0.002747	-0.095825	0.006866	0.21927	-0.00885	0.055237	0.086823	0.22339	0.25284	0.097961	0.066071	0.043335	0.079803	0.066376	-0.034943	-0.046082	-0.019836	0.001984	-0.41351	-0.001068	-0.003052	-0.06134
54.037	0.014954	-0.21118	-0.014343	-0.015717	0.049744	-0.029449	0.10422	-0.014191	0.10422	-0.15457	0.010834	-0.10956	-0.015564	0.30975	-0.001984	0.38605	0.068207	0.21973	0.15137	0.11246	0.061188	0.048828	0.061798	0.052948	-0.040283	-0.054932	-0.033417	-0.001526	-0.037384	-0.007477	-0.001831	-0.040894
54.038	0.020752	-0.28122	-0.078278	-0.005493	0.090027	-0.028992	0.21805	-0.010681	0.001831	-0.06012	0.00473	-0.098572	0.097046	0.26184	0.0177	-0.1973	0.009918	0.16632	0.18875	0.00412	0.050964	0.059509	0.077057	0.06012	-0.035706	-0.056915	0.048065	-0.001831	0.089569	-0.018158	0.000153	-0.017242
54.039	-0.007629	-0.29083	-0.070038	0.010986	0.048828	0.052032	0.20279	-0.005493	-0.12024	-0.11719	-0.00412	-0.077362	0.13168	0.40115	0.016632	-0.20798	-0.039368	0.16586	0.1561	-0.045929	0.05127	0.060425	0.079346	0.050507	-0.033569	-0.068665	0.1532	-0.010071	0.13855	0.016022	-0.001373	-0.019836
54.04	-0.005646	-0.28046	-0.066071	0.014954	0.021515	0.14877	0.11932	-0.001068	-0.11566	-0.2803	0.00412	-0.016937	0.077057	0.45075	0.009308	0.13107	-0.045319	0.16373	0.24567	-0.029144	0.033112	0.026703	0.062103	-0.006866	-0.039978	-0.071106	0.16464	-0.00412	0.03891	-0.009918	0.000763	0.006409
54.041	-0.020294	-0.27908	-0.078888	0.003967	0.016785	0.13153	0.082855	-0.00061	-0.058746	-0.04425	0.00473	-0.18585	0.043488	0.36957	0	-0.08606	-0.063019	0.16647	0.28214	-0.024109	0.047455	0.015717	0.087585	-0.066528	-0.033112	-0.082245	0.054932	-0.001373	0.047455	-0.032196	0.006866	0.010376
54.042	0.000916	-0.30518	-0.11459	-0.005646	0.011597	0.15381	0.066833	-0.007782	-0.010529	0.19119	0.001068	-0.17273	0.022736	0.13977	-0.003815	0.076599	-0.063171	0.1767	0.27359	-0.12817	0.056915	0.032501	0.076752	-0.049438	-0.031128	-0.085907	0.030518	-0.006409	0.060883	-0.035858	-0.002594	-0.036316
54.043	0.015564	-0.27451	-0.036469	-0.012817	0.002747	0.1149	0.050812	-0.006256	0.006104	0.23193	-0.000916	-0.11581	-0.017395	0.010529	0.003204	-0.10864	-0.061951	0.13825	0.25207	-0.098572	0.053253	0.021362	0.056915	-0.056458	-0.041809	-0.096588	0.10498	-0.003204	0.05722	-0.038605	0.001526	-0.062408
54.044	0.007324	-0.31754	0.009918	-0.004272	-0.00412	0.1683	0.073547	-0.007629	0.015717	0.27268	0.000305	-0.093689	-0.041046	-0.11231	0.031128	-0.11078	-0.049438	0.13794	0.42938	-0.087585	0.073853	0.038452	0.067444	0.00351	-0.0354	-0.09613	0.13565	-0.003967	-0.010529	-0.059052	0.000153	-0.047302
54.045	0.013428	-0.33112	-0.009918	0.003967	0.005798	0.28931	0.10986	0.002747	0.02182	0.14862	-0.001068	-0.077362	-0.052185	-0.49667	0.046844	-0.075836	-0.034637	0.11017	0.19287	0.068054	0.075226	0.060883	0.053253	0.059509	-0.029755	-0.087433	0.079041	-0.001373	-0.081787	-0.051117	-0.000305	-0.043488
54.046	-0.001984	-0.32761	-0.086975	0.01297	0.03067	0.31311	0.13245	0.004578	0.017395	-0.079041	0.003357	-0.072937	-0.05661	-0.49179	0.045319	-0.40649	-0.023499	0.080719	0.52582	0.24902	0.087738	0.07431	0.024414	0.10025	-0.015106	-0.06897	0.12207	-0.002594	-0.044098	-0.081024	0.002136	-0.044708
54.047	-0.004578	-0.2829	-0.14206	0.009155	0.016174	0.31342	0.17441	0.001831	0.024719	0.018768	0.001984	-0.05249	-0.04776	-0.16037	0.058594	0.010223	0.006714	0.099487	0.45151	0.1619	0.086975	0.062103	-0.039978	0.10086	-0.006714	-0.033875	0.33188	-0.002289	-0.1416	-0.093384	0.002289	-0.042572
54.048	-0.016632	-0.23499	-0.095978	0.010223	-0.039978	0.19989	0.15854	-0.001068	0.008392	-0.043335	0.002899	-0.038757	-0.027771	-0.12604	0.045013	0.25559	0.006714	0.13138	0.28732	-0.093079	0.072937	0.066833	-0.033264	0.036774	-0.010681	0.003052	0.4985	-0.003357	-0.19486	-0.051575	0.000153	-0.039673
54.049	-0.015564	-0.24292	0.000458	0.004425	-0.12344	-0.20645	0.16464	0.010529	0.01297	-0.44495	0.00061	-0.084991	-0.000305	-0.51376	0.026245	0.07782	0.019379	0.19165	-0.040894	-0.14847	0.073242	0.068512	-0.057983	0.039215	-0.000458	0.037842	0.60898	0.00061	-0.041809	-0.080872	-0.003967	-0.037079
